<mxfile host="app.diagrams.net" modified="2024-04-02T00:07:11.906Z" agent="Mozilla/5.0 (Windows NT 10.0; Win64; x64) AppleWebKit/537.36 (KHTML, like Gecko) Chrome/123.0.0.0 Safari/537.36 Edg/123.0.0.0" etag="IZ2x4-zyDmcUchrrMlwt" version="24.0.4" type="github">
  <diagram name="第 1 页" id="Jp05JcfmejeYLyZtpyRj">
    <mxGraphModel dx="1002" dy="543" grid="1" gridSize="10" guides="1" tooltips="1" connect="1" arrows="1" fold="1" page="1" pageScale="1" pageWidth="827" pageHeight="1169" math="0" shadow="0">
      <root>
        <mxCell id="0" />
        <mxCell id="1" parent="0" />
        <mxCell id="A-QXcpjgt3U8IE41ve2H-4" value="自然资源" style="rounded=1;whiteSpace=wrap;html=1;direction=west;fontSize=16;" vertex="1" parent="1">
          <mxGeometry x="90" y="50" width="90" height="310" as="geometry" />
        </mxCell>
        <mxCell id="A-QXcpjgt3U8IE41ve2H-5" value="能源供应" style="rounded=1;whiteSpace=wrap;html=1;fontSize=16;" vertex="1" parent="1">
          <mxGeometry x="440" y="55" width="310" height="60" as="geometry" />
        </mxCell>
        <mxCell id="A-QXcpjgt3U8IE41ve2H-6" value="碳排放" style="rounded=1;whiteSpace=wrap;html=1;arcSize=18;direction=west;fontSize=16;" vertex="1" parent="1">
          <mxGeometry x="440" y="300" width="310" height="60" as="geometry" />
        </mxCell>
        <mxCell id="A-QXcpjgt3U8IE41ve2H-8" value="物料供应" style="rounded=1;whiteSpace=wrap;html=1;fontSize=16;" vertex="1" parent="1">
          <mxGeometry x="220" y="180" width="120" height="60" as="geometry" />
        </mxCell>
        <mxCell id="A-QXcpjgt3U8IE41ve2H-9" value="产品生产" style="rounded=0;whiteSpace=wrap;html=1;fontSize=16;" vertex="1" parent="1">
          <mxGeometry x="430" y="180" width="120" height="60" as="geometry" />
        </mxCell>
        <mxCell id="A-QXcpjgt3U8IE41ve2H-10" value="使用及报废处理" style="rounded=0;whiteSpace=wrap;html=1;fontSize=16;" vertex="1" parent="1">
          <mxGeometry x="640" y="180" width="120" height="60" as="geometry" />
        </mxCell>
        <mxCell id="A-QXcpjgt3U8IE41ve2H-12" value="" style="endArrow=classic;html=1;rounded=0;" edge="1" parent="1">
          <mxGeometry width="50" height="50" relative="1" as="geometry">
            <mxPoint x="190" y="90" as="sourcePoint" />
            <mxPoint x="420" y="90" as="targetPoint" />
          </mxGeometry>
        </mxCell>
        <mxCell id="A-QXcpjgt3U8IE41ve2H-13" value="" style="endArrow=classic;html=1;rounded=0;" edge="1" parent="1">
          <mxGeometry width="50" height="50" relative="1" as="geometry">
            <mxPoint x="420" y="325" as="sourcePoint" />
            <mxPoint x="200" y="325" as="targetPoint" />
          </mxGeometry>
        </mxCell>
        <mxCell id="A-QXcpjgt3U8IE41ve2H-15" value="" style="shape=flexArrow;endArrow=classic;html=1;rounded=0;" edge="1" parent="1">
          <mxGeometry width="50" height="50" relative="1" as="geometry">
            <mxPoint x="350" y="209.5" as="sourcePoint" />
            <mxPoint x="430" y="209.5" as="targetPoint" />
          </mxGeometry>
        </mxCell>
        <mxCell id="A-QXcpjgt3U8IE41ve2H-16" value="" style="shape=flexArrow;endArrow=classic;html=1;rounded=0;" edge="1" parent="1">
          <mxGeometry width="50" height="50" relative="1" as="geometry">
            <mxPoint x="555" y="209.5" as="sourcePoint" />
            <mxPoint x="635" y="209.5" as="targetPoint" />
          </mxGeometry>
        </mxCell>
        <mxCell id="A-QXcpjgt3U8IE41ve2H-17" value="" style="shape=flexArrow;endArrow=classic;html=1;rounded=0;entryX=0.5;entryY=0;entryDx=0;entryDy=0;" edge="1" parent="1" target="A-QXcpjgt3U8IE41ve2H-9">
          <mxGeometry width="50" height="50" relative="1" as="geometry">
            <mxPoint x="490" y="120" as="sourcePoint" />
            <mxPoint x="645" y="219.5" as="targetPoint" />
          </mxGeometry>
        </mxCell>
        <mxCell id="A-QXcpjgt3U8IE41ve2H-18" value="" style="shape=flexArrow;endArrow=classic;html=1;rounded=0;exitX=0.839;exitY=1.083;exitDx=0;exitDy=0;exitPerimeter=0;entryX=0.5;entryY=0;entryDx=0;entryDy=0;" edge="1" parent="1" source="A-QXcpjgt3U8IE41ve2H-5" target="A-QXcpjgt3U8IE41ve2H-10">
          <mxGeometry width="50" height="50" relative="1" as="geometry">
            <mxPoint x="575" y="229.5" as="sourcePoint" />
            <mxPoint x="655" y="229.5" as="targetPoint" />
          </mxGeometry>
        </mxCell>
        <mxCell id="A-QXcpjgt3U8IE41ve2H-19" value="" style="shape=flexArrow;endArrow=classic;html=1;rounded=0;entryX=0.841;entryY=1.02;entryDx=0;entryDy=0;entryPerimeter=0;exitX=0.5;exitY=1;exitDx=0;exitDy=0;" edge="1" parent="1" source="A-QXcpjgt3U8IE41ve2H-9" target="A-QXcpjgt3U8IE41ve2H-6">
          <mxGeometry width="50" height="50" relative="1" as="geometry">
            <mxPoint x="585" y="239.5" as="sourcePoint" />
            <mxPoint x="665" y="239.5" as="targetPoint" />
          </mxGeometry>
        </mxCell>
        <mxCell id="A-QXcpjgt3U8IE41ve2H-20" value="" style="shape=flexArrow;endArrow=classic;html=1;rounded=0;exitX=0.5;exitY=1;exitDx=0;exitDy=0;entryX=0.16;entryY=0.993;entryDx=0;entryDy=0;entryPerimeter=0;" edge="1" parent="1" source="A-QXcpjgt3U8IE41ve2H-10" target="A-QXcpjgt3U8IE41ve2H-6">
          <mxGeometry width="50" height="50" relative="1" as="geometry">
            <mxPoint x="595" y="249.5" as="sourcePoint" />
            <mxPoint x="675" y="249.5" as="targetPoint" />
          </mxGeometry>
        </mxCell>
      </root>
    </mxGraphModel>
  </diagram>
</mxfile>
